<svg width="285" height="274" viewBox="0 0 285 274" fill="none" xmlns="http://www.w3.org/2000/svg">
<g id="Group">
<g id="Vector">
<path d="M137.206 0.271414C136.503 0.379983 135.577 0.407125 135.099 0.35284C134.65 0.271414 133.021 0.434267 131.504 0.651404C128.751 1.08568 125.802 1.03139 124.342 0.515693C123.387 0.162845 118.528 1.49281 117.264 2.44279C114.652 4.42416 109.989 5.78127 107.939 5.12986C107.124 4.88558 106.731 4.88558 106.085 5.12986C105.636 5.31985 103.417 5.48271 100.889 5.53699L96.4793 5.64556L93.6705 7.46408C90.4124 9.55403 88.0812 10.504 83.6996 11.5083C81.7335 11.9697 80.4977 12.404 80.3292 12.6754C79.8236 13.4896 77.7171 15.5796 76.4812 16.5024C70.4144 20.9809 69.7122 21.3337 66.5946 21.578L64.0948 21.768L62.55 23.1794C61.7074 23.9394 60.6682 25.0522 60.2469 25.6765C59.5447 26.6264 59.0953 26.8979 56.5675 27.8478C53.8992 28.8521 53.6183 29.015 52.4106 30.4806C51.3152 31.8377 50.6972 32.272 48.3098 33.4391C43.3384 35.8548 42.4396 36.479 41.0634 38.4876C40.1365 39.7904 39.5467 41.1204 38.9287 43.1289C38.4513 44.7031 38.058 46.1416 38.058 46.3316C38.058 47.0373 36.766 48.5573 35.6706 49.1816C35.0527 49.5073 33.9854 50.2944 33.2832 50.8915C32.5811 51.5158 31.6261 52.1672 31.1486 52.3572C30.643 52.5472 29.8847 53.1443 29.4353 53.6872C28.7331 54.5014 28.5646 55.0443 28.3961 56.6999C28.059 59.9841 27.5535 60.6356 22.9753 63.8926L20.3632 65.7383V67.7197C20.3632 69.2939 20.2508 69.8367 19.8014 70.3253C19.4925 70.6782 18.8745 72.1438 18.3971 73.5824C17.6106 76.0252 17.3859 76.378 15.167 78.8751C13.875 80.3679 11.937 82.7293 10.8697 84.1407C9.12831 86.4749 8.90362 86.9634 8.34187 89.2977C8.00483 90.7091 7.55543 93.559 7.33074 95.6218C6.96561 99.3131 6.96561 99.3403 5.78595 100.969C4.71864 102.434 4.55011 102.896 4.18498 105.203C3.87602 107.239 3.84794 108.161 4.10072 109.546C4.40968 111.229 4.38159 111.31 3.67941 112.233C3.17384 112.857 2.72445 114.051 2.30314 115.761L1.71331 118.34L2.6121 121.054L3.53898 123.741L2.80871 126.265C1.7414 129.984 0.983049 134.001 1.17966 134.924C1.26392 135.358 1.03922 137.746 0.674091 140.216L0 144.722L1.7414 146.269C4.04455 148.359 4.15689 148.956 2.92106 152.43L1.99419 155.036L2.49975 157.397C2.75254 158.673 3.17384 160.084 3.39854 160.546C4.40968 162.473 5.75786 166.409 6.06682 168.254C6.23534 169.367 6.62856 170.751 6.96561 171.376L7.55543 172.461L6.88134 176.125C5.81403 182.015 5.75786 181.418 7.69587 184.322C8.81936 186.005 9.91475 187.281 10.954 188.095C12.5549 189.344 13.3414 190.375 13.3414 191.271C13.3414 191.542 14.0436 192.438 14.9143 193.252C16.9084 195.152 17.414 196.129 18.1443 199.549C18.6498 201.856 18.9026 202.508 19.6048 203.213C20.3912 204.028 20.4755 204.272 20.4755 206.063L20.5036 208.017L22.3293 209.266C23.8741 210.325 24.2673 210.759 24.7728 212.007C25.2503 213.147 25.8121 213.826 27.3007 215.074C28.6208 216.187 29.4072 217.083 29.8566 218.033C30.2498 218.874 31.4295 220.34 32.9462 221.86C36.3166 225.226 37.5806 227.207 38.7883 230.898C40.5578 236.245 42.4958 238.037 49.4895 240.778C51.0624 241.375 52.551 242.108 52.8038 242.379C53.2532 242.868 56.5675 244.551 57.1011 244.551C57.3539 244.551 58.4774 245.881 60.4716 248.595C60.949 249.219 61.9602 250.278 62.7185 250.902C64.0105 251.988 64.2633 252.069 66.2294 252.232C67.381 252.341 68.4764 252.476 68.7011 252.558C68.9258 252.666 69.6561 253.372 70.3301 254.186C71.3694 255.435 71.7907 255.706 72.9984 255.978C73.7849 256.14 75.2173 256.629 76.1723 257.036C77.8856 257.796 78.7282 258.61 79.9359 260.755C80.3292 261.487 80.7224 261.65 83.3064 262.275C84.9074 262.655 87.1824 263.062 88.334 263.17C89.4856 263.252 90.7495 263.496 91.1427 263.686C91.5359 263.876 92.856 264.935 94.1199 266.074C96.395 268.083 96.395 268.083 98.5577 268.409C101.366 268.816 102.069 268.789 103.501 268.3C105.102 267.757 105.271 267.784 106.282 268.599C106.787 269.006 108.304 269.63 109.849 270.092C112.124 270.743 112.742 270.824 113.725 270.607C115.466 270.227 115.607 270.254 117.151 271.367C117.966 271.964 119.595 272.724 120.999 273.186L123.443 274L125.212 273.104C127.263 272.1 127.712 272.073 131.588 272.67C134.172 273.05 134.65 273.05 137.234 272.67C140.997 272.1 143.497 272.29 144.564 273.267L145.351 273.973L147.373 273.511C148.497 273.267 149.676 273.104 149.985 273.186C150.294 273.267 152.316 273.023 154.451 272.67C158.327 272.019 158.355 272.019 159.956 272.507C161.557 272.996 161.585 272.996 164.197 272.371C165.63 272.019 167.118 271.476 167.512 271.177C169.169 269.874 171.051 269.169 174.112 268.707C176.443 268.327 177.342 268.3 177.848 268.517C178.353 268.734 178.662 268.734 179.083 268.49C179.364 268.3 180.684 268.164 182.061 268.137C183.437 268.137 185.544 268.029 186.779 267.92C189.195 267.703 189.167 267.703 194.868 264.066C196.582 262.953 197.621 262.465 198.239 262.465C198.744 262.465 200.345 262.085 201.806 261.596C204.306 260.809 204.643 260.592 207.002 258.502C209.727 256.059 211.384 254.865 214.024 253.426C215.4 252.666 216.187 252.422 218.349 252.178C220.933 251.906 221.046 251.852 222.225 250.739C222.899 250.088 223.826 249.002 224.304 248.296C225.118 247.075 225.231 247.021 228.685 245.854C232 244.768 232.252 244.605 232.898 243.601C234.078 241.809 234.696 241.294 237.252 240.045C241.212 238.118 242.701 237.087 244.161 235.214C245.481 233.531 246.099 231.957 247.307 227.261C247.644 225.958 248.683 224.628 249.863 224.058C250.312 223.814 250.874 223.407 251.155 223.136C251.436 222.837 252.391 222.348 253.29 222.023C254.666 221.507 255.059 221.209 255.874 220.041C256.688 218.82 256.829 218.331 256.997 216.269C257.166 214.097 257.25 213.853 258.177 212.822C258.71 212.197 260.424 210.84 261.94 209.782L264.749 207.855L264.693 206.145C264.637 204.598 264.721 204.326 265.536 203.403C266.013 202.833 266.406 202.236 266.406 202.128C266.406 201.992 266.715 200.879 267.108 199.658C267.839 197.323 268.092 196.971 273.54 190.212C276.658 186.331 277.304 184.594 277.613 179.41L277.81 176.017L279.27 173.547C280.478 171.511 280.843 170.616 281.264 168.471C281.714 166.164 281.714 165.621 281.405 164.02C281.068 162.201 281.068 162.174 281.826 161.034C282.332 160.302 282.781 159.053 283.09 157.533L283.596 155.172L282.416 152.512L281.236 149.879L282.219 147.219C283.511 143.745 284.185 139.972 283.764 138.588C283.511 137.801 283.539 137.176 283.905 135.629C284.157 134.571 284.494 132.617 284.663 131.314L285 128.925L283.877 127.65C282.163 125.641 281.292 124.284 281.292 123.605C281.292 123.28 281.742 121.977 282.304 120.728L283.287 118.475L282.809 116.087C282.528 114.648 282.079 113.318 281.686 112.748C280.562 111.174 279.888 109.709 279.888 108.921C279.888 107.429 278.961 103.249 278.456 102.434C277.782 101.349 277.782 100.236 278.484 96.3546C278.793 94.6447 279.046 92.8804 279.046 92.4733C279.046 91.4419 275.984 87.0992 274.102 85.4163C273.203 84.6292 272.473 83.7064 272.277 83.1093C272.08 82.5393 271.097 81.2093 269.973 80.0693C267.755 77.7623 267.221 76.8123 266.519 73.5824C266.182 72.0353 265.788 71.0581 265.311 70.4882C264.665 69.7553 264.581 69.4025 264.581 67.6111V65.5754L262.53 64.1098C260.761 62.8341 260.452 62.4812 260.199 61.4498C259.946 60.4727 259.497 59.9027 257.812 58.4642C256.407 57.2428 255.733 56.4557 255.733 56.0485C255.733 55.1528 254.245 53.1715 252.391 51.6244C250.762 50.2401 248.711 47.7159 247.756 45.8974C247.476 45.4088 246.914 43.8346 246.464 42.4232C244.976 37.5919 242.195 35.1491 235.37 32.5706C234.443 32.2177 233.179 31.4849 232.533 30.942C231.803 30.2906 230.708 29.7206 229.444 29.3135C227.169 28.6078 226.551 28.1193 225.062 25.9207C223.995 24.3465 221.326 21.4423 220.933 21.4423C220.849 21.4423 219.669 21.3066 218.377 21.1437C216.018 20.8723 215.962 20.8452 214.445 19.4338C213.153 18.2124 212.507 17.8595 210.569 17.2353C208.041 16.4481 206.777 15.5796 205.485 13.7339C204.783 12.7568 204.418 12.5397 202.312 11.8611C201.02 11.454 199.25 11.074 198.407 11.0197C195.767 10.8297 193.942 9.93402 191.189 7.46408L188.689 5.23843L186.133 4.91272C183.774 4.61416 183.409 4.6413 181.471 5.21129L179.336 5.80841L178.718 5.23843C178.353 4.91272 176.949 4.28845 175.544 3.79989C173.298 3.03991 172.792 2.95849 171.022 3.0942C169.113 3.25705 169.028 3.25705 167.792 2.36136C166.585 1.46567 162.793 -7.55675e-06 161.726 -7.55675e-06C161.417 -7.55675e-06 160.406 0.298556 159.451 0.678546C157.456 1.46567 156.249 1.51995 152.934 0.949968C150.744 0.569978 150.294 0.59712 146.727 1.08568C142.514 1.68281 141.475 1.60138 140.548 0.651404C139.874 -0.0271497 139.424 -0.081434 137.206 0.271414Z" fill="white"/>
<path d="M137.206 0.271414C136.503 0.379983 135.577 0.407125 135.099 0.35284C134.65 0.271414 133.021 0.434267 131.504 0.651404C128.751 1.08568 125.802 1.03139 124.342 0.515693C123.387 0.162845 118.528 1.49281 117.264 2.44279C114.652 4.42416 109.989 5.78127 107.939 5.12986C107.124 4.88558 106.731 4.88558 106.085 5.12986C105.636 5.31985 103.417 5.48271 100.889 5.53699L96.4793 5.64556L93.6705 7.46408C90.4124 9.55403 88.0812 10.504 83.6996 11.5083C81.7335 11.9697 80.4977 12.404 80.3292 12.6754C79.8236 13.4896 77.7171 15.5796 76.4812 16.5024C70.4144 20.9809 69.7122 21.3337 66.5946 21.578L64.0948 21.768L62.55 23.1794C61.7074 23.9394 60.6682 25.0522 60.2469 25.6765C59.5447 26.6264 59.0953 26.8979 56.5675 27.8478C53.8992 28.8521 53.6183 29.015 52.4106 30.4806C51.3152 31.8377 50.6972 32.272 48.3098 33.4391C43.3384 35.8548 42.4396 36.479 41.0634 38.4876C40.1365 39.7904 39.5467 41.1204 38.9287 43.1289C38.4513 44.7031 38.058 46.1416 38.058 46.3316C38.058 47.0373 36.766 48.5573 35.6706 49.1816C35.0527 49.5073 33.9854 50.2944 33.2832 50.8915C32.5811 51.5158 31.6261 52.1672 31.1486 52.3572C30.643 52.5472 29.8847 53.1443 29.4353 53.6872C28.7331 54.5014 28.5646 55.0443 28.3961 56.6999C28.059 59.9841 27.5535 60.6356 22.9753 63.8926L20.3632 65.7383V67.7197C20.3632 69.2939 20.2508 69.8367 19.8014 70.3253C19.4925 70.6782 18.8745 72.1438 18.3971 73.5824C17.6106 76.0252 17.3859 76.378 15.167 78.8751C13.875 80.3679 11.937 82.7293 10.8697 84.1407C9.12831 86.4749 8.90362 86.9634 8.34187 89.2977C8.00483 90.7091 7.55543 93.559 7.33074 95.6218C6.96561 99.3131 6.96561 99.3403 5.78595 100.969C4.71864 102.434 4.55011 102.896 4.18498 105.203C3.87602 107.239 3.84794 108.161 4.10072 109.546C4.40968 111.229 4.38159 111.31 3.67941 112.233C3.17384 112.857 2.72445 114.051 2.30314 115.761L1.71331 118.34L2.6121 121.054L3.53898 123.741L2.80871 126.265C1.7414 129.984 0.983049 134.001 1.17966 134.924C1.26392 135.358 1.03922 137.746 0.674091 140.216L0 144.722L1.7414 146.269C4.04455 148.359 4.15689 148.956 2.92106 152.43L1.99419 155.036L2.49975 157.397C2.75254 158.673 3.17384 160.084 3.39854 160.546C4.40968 162.473 5.75786 166.409 6.06682 168.254C6.23534 169.367 6.62856 170.751 6.96561 171.376L7.55543 172.461L6.88134 176.125C5.81403 182.015 5.75786 181.418 7.69587 184.322C8.81936 186.005 9.91475 187.281 10.954 188.095C12.5549 189.344 13.3414 190.375 13.3414 191.271C13.3414 191.542 14.0436 192.438 14.9143 193.252C16.9084 195.152 17.414 196.129 18.1443 199.549C18.6498 201.856 18.9026 202.508 19.6048 203.213C20.3912 204.028 20.4755 204.272 20.4755 206.063L20.5036 208.017L22.3293 209.266C23.8741 210.325 24.2673 210.759 24.7728 212.007C25.2503 213.147 25.8121 213.826 27.3007 215.074C28.6208 216.187 29.4072 217.083 29.8566 218.033C30.2498 218.874 31.4295 220.34 32.9462 221.86C36.3166 225.226 37.5806 227.207 38.7883 230.898C40.5578 236.245 42.4958 238.037 49.4895 240.778C51.0624 241.375 52.551 242.108 52.8038 242.379C53.2532 242.868 56.5675 244.551 57.1011 244.551C57.3539 244.551 58.4774 245.881 60.4716 248.595C60.949 249.219 61.9602 250.278 62.7185 250.902C64.0105 251.988 64.2633 252.069 66.2294 252.232C67.381 252.341 68.4764 252.476 68.7011 252.558C68.9258 252.666 69.6561 253.372 70.3301 254.186C71.3694 255.435 71.7907 255.706 72.9984 255.978C73.7849 256.14 75.2173 256.629 76.1723 257.036C77.8856 257.796 78.7282 258.61 79.9359 260.755C80.3292 261.487 80.7224 261.65 83.3064 262.275C84.9074 262.655 87.1824 263.062 88.334 263.17C89.4856 263.252 90.7495 263.496 91.1427 263.686C91.5359 263.876 92.856 264.935 94.1199 266.074C96.395 268.083 96.395 268.083 98.5577 268.409C101.366 268.816 102.069 268.789 103.501 268.3C105.102 267.757 105.271 267.784 106.282 268.599C106.787 269.006 108.304 269.63 109.849 270.092C112.124 270.743 112.742 270.824 113.725 270.607C115.466 270.227 115.607 270.254 117.151 271.367C117.966 271.964 119.595 272.724 120.999 273.186L123.443 274L125.212 273.104C127.263 272.1 127.712 272.073 131.588 272.67C134.172 273.05 134.65 273.05 137.234 272.67C140.997 272.1 143.497 272.29 144.564 273.267L145.351 273.973L147.373 273.511C148.497 273.267 149.676 273.104 149.985 273.186C150.294 273.267 152.316 273.023 154.451 272.67C158.327 272.019 158.355 272.019 159.956 272.507C161.557 272.996 161.585 272.996 164.197 272.371C165.63 272.019 167.118 271.476 167.512 271.177C169.169 269.874 171.051 269.169 174.112 268.707C176.443 268.327 177.342 268.3 177.848 268.517C178.353 268.734 178.662 268.734 179.083 268.49C179.364 268.3 180.684 268.164 182.061 268.137C183.437 268.137 185.544 268.029 186.779 267.92C189.195 267.703 189.167 267.703 194.868 264.066C196.582 262.953 197.621 262.465 198.239 262.465C198.744 262.465 200.345 262.085 201.806 261.596C204.306 260.809 204.643 260.592 207.002 258.502C209.727 256.059 211.384 254.865 214.024 253.426C215.4 252.666 216.187 252.422 218.349 252.178C220.933 251.906 221.046 251.852 222.225 250.739C222.899 250.088 223.826 249.002 224.304 248.296C225.118 247.075 225.231 247.021 228.685 245.854C232 244.768 232.252 244.605 232.898 243.601C234.078 241.809 234.696 241.294 237.252 240.045C241.212 238.118 242.701 237.087 244.161 235.214C245.481 233.531 246.099 231.957 247.307 227.261C247.644 225.958 248.683 224.628 249.863 224.058C250.312 223.814 250.874 223.407 251.155 223.136C251.436 222.837 252.391 222.348 253.29 222.023C254.666 221.507 255.059 221.209 255.874 220.041C256.688 218.82 256.829 218.331 256.997 216.269C257.166 214.097 257.25 213.853 258.177 212.822C258.71 212.197 260.424 210.84 261.94 209.782L264.749 207.855L264.693 206.145C264.637 204.598 264.721 204.326 265.536 203.403C266.013 202.833 266.406 202.236 266.406 202.128C266.406 201.992 266.715 200.879 267.108 199.658C267.839 197.323 268.092 196.971 273.54 190.212C276.658 186.331 277.304 184.594 277.613 179.41L277.81 176.017L279.27 173.547C280.478 171.511 280.843 170.616 281.264 168.471C281.714 166.164 281.714 165.621 281.405 164.02C281.068 162.201 281.068 162.174 281.826 161.034C282.332 160.302 282.781 159.053 283.09 157.533L283.596 155.172L282.416 152.512L281.236 149.879L282.219 147.219C283.511 143.745 284.185 139.972 283.764 138.588C283.511 137.801 283.539 137.176 283.905 135.629C284.157 134.571 284.494 132.617 284.663 131.314L285 128.925L283.877 127.65C282.163 125.641 281.292 124.284 281.292 123.605C281.292 123.28 281.742 121.977 282.304 120.728L283.287 118.475L282.809 116.087C282.528 114.648 282.079 113.318 281.686 112.748C280.562 111.174 279.888 109.709 279.888 108.921C279.888 107.429 278.961 103.249 278.456 102.434C277.782 101.349 277.782 100.236 278.484 96.3546C278.793 94.6447 279.046 92.8804 279.046 92.4733C279.046 91.4419 275.984 87.0992 274.102 85.4163C273.203 84.6292 272.473 83.7064 272.277 83.1093C272.08 82.5393 271.097 81.2093 269.973 80.0693C267.755 77.7623 267.221 76.8123 266.519 73.5824C266.182 72.0353 265.788 71.0581 265.311 70.4882C264.665 69.7553 264.581 69.4025 264.581 67.6111V65.5754L262.53 64.1098C260.761 62.8341 260.452 62.4812 260.199 61.4498C259.946 60.4727 259.497 59.9027 257.812 58.4642C256.407 57.2428 255.733 56.4557 255.733 56.0485C255.733 55.1528 254.245 53.1715 252.391 51.6244C250.762 50.2401 248.711 47.7159 247.756 45.8974C247.476 45.4088 246.914 43.8346 246.464 42.4232C244.976 37.5919 242.195 35.1491 235.37 32.5706C234.443 32.2177 233.179 31.4849 232.533 30.942C231.803 30.2906 230.708 29.7206 229.444 29.3135C227.169 28.6078 226.551 28.1193 225.062 25.9207C223.995 24.3465 221.326 21.4423 220.933 21.4423C220.849 21.4423 219.669 21.3066 218.377 21.1437C216.018 20.8723 215.962 20.8452 214.445 19.4338C213.153 18.2124 212.507 17.8595 210.569 17.2353C208.041 16.4481 206.777 15.5796 205.485 13.7339C204.783 12.7568 204.418 12.5397 202.312 11.8611C201.02 11.454 199.25 11.074 198.407 11.0197C195.767 10.8297 193.942 9.93402 191.189 7.46408L188.689 5.23843L186.133 4.91272C183.774 4.61416 183.409 4.6413 181.471 5.21129L179.336 5.80841L178.718 5.23843C178.353 4.91272 176.949 4.28845 175.544 3.79989C173.298 3.03991 172.792 2.95849 171.022 3.0942C169.113 3.25705 169.028 3.25705 167.792 2.36136C166.585 1.46567 162.793 -7.55675e-06 161.726 -7.55675e-06C161.417 -7.55675e-06 160.406 0.298556 159.451 0.678546C157.456 1.46567 156.249 1.51995 152.934 0.949968C150.744 0.569978 150.294 0.59712 146.727 1.08568C142.514 1.68281 141.475 1.60138 140.548 0.651404C139.874 -0.0271497 139.424 -0.081434 137.206 0.271414Z" fill="url(#paint0_linear)"/>
</g>
</g>
<defs>
<linearGradient id="paint0_linear" x1="142.5" y1="274" x2="142.5" y2="0" gradientUnits="userSpaceOnUse">
<stop stop-color="#62FD49"/>
<stop offset="1" stop-color="#051503" stop-opacity="0"/>
</linearGradient>
</defs>
</svg>
